 <svg  version="1.0" xmlns="http://www.w3.org/2000/svg"  width="900.000000pt" height="162.000000pt" viewBox="0 0 900.000000 162.000000"  preserveAspectRatio="xMidYMid meet">  <g transform="translate(0.000000,162.000000) scale(0.100000,-0.100000)" fill="#2e186a" stroke="none"> <path d="M4950 1608 c-1 -12 -138 -250 -207 -358 -15 -24 -34 -58 -41 -74 -7 -17 -24 -45 -37 -62 -14 -18 -25 -36 -25 -39 0 -6 -93 -166 -130 -225 -6 -8 -21 -35 -35 -60 -14 -25 -30 -52 -35 -60 -25 -40 -93 -155 -101 -174 -13 -28 -29 -55 -56 -92 -12 -17 -27 -42 -33 -55 -5 -13 -14 -31 -19 -39 -48 -75 -160 -270 -165 -287 l-7 -23 905 0 c809 0 906 2 906 15 0 15 -18 53 -61 125 -12 19 -55 94 -97 165 -41 72 -90 153 -109 182 -18 28 -33 56 -33 61 0 5 -13 27 -28 48 -16 21 -32 46 -36 54 -4 8 -15 29 -24 45 -42 75 -104 182 -115 200 -45 74 -64 104 -80 134 -10 19 -31 52 -45 75 -15 23 -36 59 -47 81 -11 22 -30 54 -41 70 -12 17 -34 54 -50 84 -16 30 -33 61 -39 70 -48 78 -65 113 -65 130 0 16 -6 21 -25 21 -14 0 -25 -6 -25 -12z"/> <path d="M76 1524 c-14 -14 -16 -93 -16 -727 0 -392 4 -718 8 -725 7 -9 88 -12 373 -10 l364 3 3 724 c1 526 -1 728 -9 737 -9 11 -78 14 -360 14 -303 0 -350 -2 -363 -16z m85 -282 c13 -10 44 -29 69 -41 25 -12 59 -31 75 -42 17 -10 51 -30 77 -42 26 -13 62 -36 82 -50 33 -26 39 -27 164 -27 144 0 142 1 142 -68 0 -82 3 -80 -138 -84 -131 -4 -132 -5 -217 -59 -22 -14 -67 -41 -100 -59 -33 -18 -67 -38 -75 -44 -28 -21 -98 -56 -113 -56 -18 0 -27 21 -27 65 0 70 10 91 53 114 76 39 195 106 202 113 4 4 -13 16 -37 29 -23 12 -49 27 -57 33 -8 6 -35 20 -60 31 -85 37 -94 48 -99 115 -3 39 0 65 8 75 16 19 22 19 51 -3z m470 -613 c39 -13 109 -76 109 -99 0 -8 7 -24 15 -34 12 -16 15 -55 15 -187 0 -92 -3 -174 -6 -183 -5 -14 -43 -16 -325 -16 l-319 0 -11 27 c-15 38 -5 332 12 364 34 65 105 119 157 119 30 0 98 -35 105 -55 9 -22 23 -19 58 16 57 55 120 71 190 48z"/> <path d="M540 469 c-13 -6 -28 -15 -32 -22 -11 -18 -21 -134 -14 -162 6 -25 9 -26 79 -23 l72 3 3 76 c2 68 0 80 -20 102 -28 31 -55 39 -88 26z"/> <path d="M263 438 c-27 -13 -43 -56 -43 -113 0 -56 15 -67 87 -63 l58 3 3 67 c3 61 0 71 -22 93 -27 27 -48 30 -83 13z"/> <path d="M972 1532 c-7 -5 -13 -20 -14 -33 -1 -13 -1 -342 0 -732 l2 -707 368 2 367 3 0 735 0 735 -355 2 c-195 2 -361 -1 -368 -5z"/> <path d="M1846 1527 c-15 -11 -16 -48 -14 -357 l3 -345 135 -3 c74 -1 139 -7 145 -13 6 -6 12 -146 15 -372 l5 -362 349 -3 c249 -2 353 1 362 9 11 9 14 78 14 364 0 292 2 355 14 364 10 8 54 11 131 10 64 -1 121 3 126 8 5 5 8 152 7 359 l-3 349 -636 2 c-479 1 -641 -1 -653 -10z"/> <path d="M3286 1527 c-15 -11 -16 -81 -14 -737 l3 -725 368 -3 367 -2 -2 737 -3 738 -352 2 c-257 1 -355 -2 -367 -10z"/> <path d="M5910 815 c0 -399 -1 -731 -3 -738 -1 -9 157 -12 728 -12 l730 0 0 735 0 735 -333 3 c-218 1 -340 -1 -352 -8 -19 -10 -20 -23 -20 -259 0 -196 -3 -251 -13 -260 -11 -8 -27 -1 -69 32 -200 152 -314 241 -323 251 -6 6 -39 33 -75 60 -36 28 -69 53 -75 58 -133 106 -164 128 -182 128 -10 0 -13 -159 -13 -725z"/> <path d="M7713 1522 c-24 -8 -43 -18 -43 -23 0 -5 -6 -9 -14 -9 -22 0 -112 -86 -140 -134 -14 -23 -32 -74 -41 -112 -13 -61 -14 -77 -1 -138 10 -44 27 -87 48 -118 32 -47 135 -128 163 -128 7 0 17 -4 20 -10 3 -5 16 -10 29 -10 12 0 31 -6 42 -14 37 -28 4 -38 -120 -37 -68 1 -124 -2 -136 -9 -20 -11 -20 -17 -18 -358 l3 -347 565 -5 c411 -4 578 -2 611 7 91 22 185 101 226 190 24 52 26 69 26 168 0 99 -3 115 -26 162 -32 62 -109 130 -181 159 -84 34 -69 48 59 54 61 3 116 9 123 13 9 6 12 88 12 352 0 337 0 345 -20 355 -33 18 -1132 10 -1187 -8z"/> </g> </svg> 